<svg width="800" height="800" viewBox="0 0 800 800" fill="none" xmlns="http://www.w3.org/2000/svg">
<g clip-path="url(#clip0_3_28)">
<path d="M399.999 26.6667L419.656 8.64737C414.605 3.13724 407.474 7.62939e-06 399.999 7.62939e-06C392.524 7.62939e-06 385.392 3.13724 380.341 8.64737L399.999 26.6667ZM399.999 720L379.03 736.475C384.086 742.912 391.815 746.667 399.999 746.667C408.182 746.667 415.911 742.912 420.967 736.475L399.999 720ZM426.666 800V26.6667H373.332V800H426.666ZM420.967 703.525L267.521 508.23L225.584 541.179L379.03 736.475L420.967 703.525ZM279.32 197.779L419.656 44.686L380.341 8.64737L240.006 161.74L279.32 197.779ZM380.341 44.686L520.676 197.779L559.989 161.74L419.656 8.64737L380.341 44.686ZM532.476 508.23L379.03 703.525L420.967 736.475L574.411 541.179L532.476 508.23ZM520.676 197.779C600.091 284.415 605.088 415.816 532.476 508.23L574.411 541.179C663.157 428.23 657.056 267.628 559.989 161.74L520.676 197.779ZM267.521 508.23C194.91 415.816 199.904 284.415 279.32 197.779L240.006 161.74C142.942 267.629 136.838 428.23 225.584 541.179L267.521 508.23Z" fill="white"/>
</g>
<defs>
<clipPath id="clip0_3_28">
<rect width="800" height="800" fill="white"/>
</clipPath>
</defs>
</svg>
