<svg width="800" height="800" viewBox="0 0 800 800" fill="none" xmlns="http://www.w3.org/2000/svg">
<g clip-path="url(#clip0_3_18)">
<path d="M705 196.667L428.333 40C419.468 35.8375 409.794 33.6796 400 33.6796C390.206 33.6796 380.532 35.8375 371.666 40L94.9998 196.667C86.4934 201.577 79.4092 208.614 74.4421 217.087C69.475 225.56 66.7955 235.179 66.6665 245V555C66.7955 564.821 69.475 574.44 74.4421 582.913C79.4092 591.386 86.4934 598.423 94.9998 603.333L168.333 645C187.491 656.32 209.418 662.091 231.666 661.667C283.333 661.667 313.333 630 313.333 576.667V271.667C313.333 269.457 312.455 267.337 310.892 265.774C309.33 264.211 307.21 263.333 305 263.333H270C267.79 263.333 265.67 264.211 264.107 265.774C262.544 267.337 261.666 269.457 261.666 271.667V576.667C261.666 601.667 236.667 625 196.667 605L120 561.667C118.965 560.89 118.125 559.884 117.546 558.727C116.968 557.57 116.667 556.294 116.667 555V245C116.781 241.92 117.959 238.976 120 236.667L395 81.6667H405L680 236.667C682.041 238.976 683.218 241.92 683.333 245V555C683.333 556.294 683.032 557.57 682.453 558.727C681.875 559.884 681.035 560.89 680 561.667L405 716.667C403.48 717.544 401.755 718.006 400 718.006C398.244 718.006 396.52 717.544 395 716.667L325 676.667C324.083 675.847 322.896 675.393 321.666 675.393C320.437 675.393 319.25 675.847 318.333 676.667L276.667 695C271.667 696.667 265 698.333 278.333 706.667L371.666 758.333C380.085 763.854 389.933 766.795 400 766.795C410.067 766.795 419.915 763.854 428.333 758.333L705 603.333C713.506 598.423 720.59 591.386 725.558 582.913C730.525 574.44 733.204 564.821 733.333 555V245C733.204 235.179 730.525 225.56 725.558 217.087C720.59 208.614 713.506 201.577 705 196.667Z" fill="white"/>
<path d="M485 505C411.667 505 396.667 488.333 390 453.333C390 451.565 389.298 449.87 388.047 448.619C386.797 447.369 385.101 446.667 383.333 446.667H346.667C344.899 446.667 343.203 447.369 341.953 448.619C340.702 449.87 340 451.565 340 453.333C340 498.333 365 553.333 485 553.333C571.667 553.333 621.667 520 621.667 461.667C621.667 403.333 581.667 386.667 496.667 376.667C411.667 366.667 403.333 360 403.333 340C403.333 320 410 303.333 473.333 303.333C536.667 303.333 551.667 315 560 351.667C560.39 353.577 561.437 355.291 562.96 356.509C564.482 357.727 566.384 358.373 568.333 358.333H603.333L610 355C610.603 354.324 611.062 353.531 611.348 352.672C611.635 351.812 611.743 350.903 611.667 350C606.667 285 561.667 255 473.333 255C385 255 348.333 288.333 348.333 341.667C348.333 395 395 416.667 470 425C545 433.333 568.333 445 568.333 463.333C568.333 481.667 543.333 505 485 505Z" fill="white"/>
</g>
<defs>
<clipPath id="clip0_3_18">
<rect width="800" height="800" fill="white"/>
</clipPath>
</defs>
</svg>
