<svg width="800" height="800" viewBox="0 0 800 800" fill="none" xmlns="http://www.w3.org/2000/svg">
<path d="M357.825 555.275C371.575 555.9 385.625 556.35 399.85 556.35C414.225 556.35 428.425 556.05 442.35 555.275C428.425 573.275 414.675 589.2 400.125 604.375L400.325 604.175C385.85 589.175 371.95 573.225 358.85 556.625L357.825 555.275ZM215.375 535.275C242.45 542.15 275.475 548 309.175 551.6L312.45 551.875C333.075 580.2 353.925 605.125 376.3 628.575L376.025 628.275C343.25 664.85 299.025 690.55 249 699.775L247.625 699.975C247.525 699.975 247.425 699.975 247.325 699.975C241.125 699.975 235.275 698.45 230.15 695.75L230.35 695.85C209.55 683.975 200.525 638.55 207.55 580.175C209.225 565.8 211.975 550.675 215.35 535.25L215.375 535.275ZM584.95 534.95C587.9 546.8 590.675 561.9 592.65 577.25L592.875 579.4C600.05 637.75 591.2 683.125 570.575 695.25C565.975 697.8 560.475 699.3 554.625 699.3C554.05 699.3 553.475 699.275 552.9 699.25H552.975C501.65 689.875 457.45 664.35 424.75 628.225L424.575 628.025C446.55 604.95 467.25 580.075 486.225 553.9L487.675 551.8C524.575 547.95 557.65 542 589.875 533.875L584.95 534.925V534.95ZM244.6 441.65C250.85 453.9 257.4 466.1 264.6 478.35C271.783 490.533 279.125 502.433 286.625 514.05C264.925 510.875 243.975 506.875 223.95 502C229.575 482.325 236.625 461.95 244.575 441.6L244.6 441.65ZM555.3 441.025C563.575 461.55 570.6 482.025 576.425 501.875C556.425 506.775 535.3 510.925 513.45 514.05C520.95 502.325 528.45 490.25 535.475 477.875C542.5 465.7 549.075 453.25 555.35 441L555.3 441.025ZM190.475 307.3C201.375 344.25 213.075 375.15 226.7 404.95L224.825 400.4C213.175 425.525 201.65 456.25 192.2 487.875L190.9 493C173.25 487.575 159.05 482.25 145.225 476.275L148.1 477.375C94 454.35 59 424.075 59 400.075C59 376.075 94 345.65 148.1 322.725C161.225 317.1 175.625 312.025 190.475 307.3ZM608.95 307.175C624.075 311.85 638.45 317.075 651.9 322.725C706 345.85 741 376.075 741 400.075C740.85 424.075 705.85 454.425 651.75 477.4C638.625 483.025 624.25 488.075 609.425 492.8C598.425 455.725 586.725 424.85 573.15 395L575.05 399.7C586.65 374.6 598.2 343.875 607.625 312.25L608.95 307.1V307.175ZM513.25 286.1C534.975 289.325 555.9 293.275 575.925 298.2C570.3 317.95 563.275 338.25 555.3 358.6C549.05 346.425 542.5 334.15 535.3 321.925C528.275 309.675 520.775 297.75 513.275 286.125L513.25 286.1ZM286.45 286.1C278.95 297.875 271.45 309.925 264.45 322.35C257.425 334.525 250.85 346.775 244.6 359.025C236.325 338.525 229.3 318.1 223.475 298.2C243.475 293.525 264.55 289.35 286.425 286.15L286.45 286.1ZM400 278.15C423.125 278.15 446.15 279.2 468.8 281.05C481.483 299.233 493.8 318.6 505.75 339.15C517.367 359.15 527.967 379.417 537.55 399.95C527.925 420.425 517.375 440.875 505.9 460.875C494.025 481.5 481.75 501.125 469.025 519.3C446.275 521.275 423.225 522.35 399.975 522.35C376.85 522.35 353.825 521.25 331.175 519.45C318.5 501.275 306.125 481.825 294.225 461.35C282.608 441.35 272.008 421.083 262.425 400.55C271.9 380.025 282.6 359.525 294.075 339.5C305.95 318.875 318.225 299.325 330.95 281.15C353.7 279.15 376.75 278.1 400 278.1V278.15ZM399.525 196.125C414.025 211.125 427.925 227.05 441 243.65L442 244.975C428.25 244.35 414.2 243.925 399.975 243.925C385.6 243.925 371.4 244.225 357.475 244.975C371.375 226.975 385.125 211.05 399.7 195.875L399.5 196.075L399.525 196.125ZM247 100.825C298.325 110.225 342.5 135.75 375.225 171.85L375.4 172.05C353.425 195.15 332.725 220.025 313.75 246.25L312.3 248.35C275.425 252.175 242.35 258.075 210.15 266.2L215.05 265.15C211.55 249.85 208.95 235.025 207.125 220.8C199.95 162.45 208.8 117.075 229.425 105C234.575 102.575 240.6 101.075 246.95 100.875H247.025L247 100.825ZM552.25 100.2V100.4C552.575 100.4 552.95 100.375 553.35 100.375C559.325 100.375 564.95 101.85 569.9 104.45L569.7 104.35C590.5 116.275 599.525 161.675 592.5 220.075C590.825 234.45 588.075 249.6 584.7 265.05C557.575 258.1 524.55 252.225 490.85 248.65L487.65 248.375C467 220.025 446.15 195.1 423.775 171.625L424.075 171.925C456.85 135.425 501 109.725 550.925 100.45L552.325 100.225L552.25 100.2ZM552.4 66.15C491.35 75.425 438.5 105.075 399.9 147.85L399.7 148.075C360.825 105.325 307.975 75.875 248.425 66.95L247.025 66.775C246.7 66.775 246.3 66.775 245.9 66.775C233.625 66.775 222.1 70 212.125 75.65L212.475 75.475C169.525 100.25 159.9 177.45 182.075 274.325C86.975 303.7 25.125 350.65 25.125 400.125C25.125 449.8 87.3 496.875 182.675 526.025C160.675 623.275 170.5 700.6 213.55 725.35C223 730.775 234.35 733.95 246.425 733.95C246.975 733.95 247.525 733.95 248.05 733.925H247.975C309.025 724.65 361.875 694.975 400.475 652.175L400.675 651.95C439.55 694.725 492.4 724.175 551.95 733.1L553.35 733.275C553.725 733.275 554.2 733.275 554.65 733.275C566.85 733.275 578.325 730.075 588.25 724.5L587.9 724.675C630.825 699.925 640.475 622.725 618.3 525.825C713.05 496.7 774.9 449.65 774.9 400.1C774.9 350.425 712.725 303.35 617.35 274.125C639.35 176.975 629.525 99.575 586.475 74.8C576.925 69.325 565.475 66.1 553.275 66.1C552.95 66.1 552.625 66.1 552.3 66.1H552.35L552.4 66.15ZM469.675 400.125C469.675 438.7 438.4 469.975 399.825 469.975C361.25 469.975 329.975 438.7 329.975 400.125C329.975 361.55 361.25 330.275 399.825 330.275C419.125 330.275 436.575 338.1 449.225 350.725C461.875 363.375 469.675 380.825 469.675 400.125Z" fill="white"/>
</svg>
