<svg width="127" height="30" viewBox="0 0 127 30" fill="none" xmlns="http://www.w3.org/2000/svg">
<path d="M1.70668 25V5.36364H5.85831V14.0217H6.11719L13.1836 5.36364H18.1598L10.8729 14.1559L18.2461 25H13.2795L7.90057 16.9268L5.85831 19.4197V25H1.70668ZM21.1681 25V10.2727H25.2526V25H21.1681ZM23.2199 8.37429C22.6127 8.37429 22.0917 8.17294 21.657 7.77024C21.2288 7.36115 21.0146 6.87216 21.0146 6.30327C21.0146 5.74077 21.2288 5.25817 21.657 4.85547C22.0917 4.44638 22.6127 4.24183 23.2199 4.24183C23.8271 4.24183 24.3449 4.44638 24.7732 4.85547C25.2078 5.25817 25.4252 5.74077 25.4252 6.30327C25.4252 6.87216 25.2078 7.36115 24.7732 7.77024C24.3449 8.17294 23.8271 8.37429 23.2199 8.37429ZM40.7781 14.4723L37.0387 14.7024C36.9748 14.3828 36.8374 14.0952 36.6264 13.8395C36.4155 13.5774 36.1374 13.3697 35.7923 13.2163C35.4535 13.0565 35.0476 12.9766 34.5746 12.9766C33.9418 12.9766 33.408 13.1108 32.9734 13.3793C32.5387 13.6413 32.3214 13.9929 32.3214 14.4339C32.3214 14.7855 32.462 15.0827 32.7433 15.3256C33.0245 15.5685 33.5071 15.7635 34.1911 15.9105L36.8565 16.4474C38.2884 16.7415 39.3558 17.2145 40.0589 17.8665C40.7621 18.5185 41.1136 19.375 41.1136 20.4361C41.1136 21.4013 40.8292 22.2482 40.2603 22.9769C39.6978 23.7056 38.9244 24.2745 37.94 24.6836C36.962 25.0863 35.8338 25.2876 34.5554 25.2876C32.6058 25.2876 31.0526 24.8817 29.8956 24.07C28.745 23.2518 28.0707 22.1396 27.8725 20.7333L31.8899 20.5224C32.0114 21.1168 32.3054 21.5707 32.772 21.8839C33.2386 22.1907 33.8363 22.3441 34.565 22.3441C35.2809 22.3441 35.8562 22.2067 36.2908 21.9318C36.7319 21.6506 36.9556 21.2894 36.962 20.8484C36.9556 20.4776 36.799 20.174 36.4922 19.9375C36.1854 19.6946 35.7124 19.5092 35.0732 19.3814L32.5227 18.8732C31.0845 18.5856 30.0138 18.087 29.3107 17.3775C28.614 16.668 28.2656 15.7635 28.2656 14.6641C28.2656 13.718 28.5213 12.9031 29.0327 12.2191C29.5504 11.5352 30.2759 11.0078 31.2092 10.6371C32.1488 10.2663 33.2482 10.081 34.5075 10.081C36.3675 10.081 37.8313 10.4741 38.8988 11.2603C39.9727 12.0465 40.5991 13.1172 40.7781 14.4723ZM47.7702 16.4858V25H43.6856V5.36364H47.6551V12.8711H47.8277C48.1601 12.0018 48.697 11.321 49.4385 10.8288C50.18 10.3303 51.11 10.081 52.2286 10.081C53.2513 10.081 54.143 10.3047 54.9037 10.7521C55.6707 11.1932 56.2652 11.8292 56.6871 12.6602C57.1153 13.4847 57.3263 14.4723 57.3199 15.6229V25H53.2354V16.3516C53.2417 15.4439 53.0116 14.7376 52.545 14.2326C52.0848 13.7276 51.4392 13.4751 50.6082 13.4751C50.0521 13.4751 49.5599 13.5934 49.1317 13.8299C48.7098 14.0664 48.3774 14.4116 48.1345 14.8654C47.898 15.3129 47.7765 15.853 47.7702 16.4858ZM64.7338 25.2781C63.7942 25.2781 62.9569 25.1151 62.2218 24.7891C61.4867 24.4567 60.905 23.9677 60.4767 23.3221C60.0549 22.6701 59.8439 21.8583 59.8439 20.8867C59.8439 20.0685 59.9941 19.3814 60.2946 18.8253C60.595 18.2692 61.0041 17.8217 61.5218 17.483C62.0396 17.1442 62.6277 16.8885 63.286 16.7159C63.9508 16.5433 64.6475 16.4219 65.3762 16.3516C66.2328 16.2621 66.9231 16.179 67.4473 16.1023C67.9714 16.0192 68.3517 15.8977 68.5882 15.7379C68.8248 15.5781 68.943 15.3416 68.943 15.0284V14.9709C68.943 14.3636 68.7512 13.8938 68.3677 13.5614C67.9906 13.229 67.4537 13.0629 66.7569 13.0629C66.0218 13.0629 65.437 13.2259 65.0023 13.5518C64.5676 13.8714 64.28 14.2741 64.1394 14.7599L60.3617 14.4531C60.5534 13.5582 60.9306 12.7848 61.4931 12.1328C62.0556 11.4744 62.7811 10.9695 63.6696 10.6179C64.5645 10.2599 65.6 10.081 66.7761 10.081C67.5943 10.081 68.3773 10.1768 69.1252 10.3686C69.8794 10.5604 70.5474 10.8576 71.1291 11.2603C71.7172 11.663 72.1806 12.1808 72.5194 12.8136C72.8581 13.44 73.0275 14.1911 73.0275 15.0668V25H69.1539V22.9577H69.0389C68.8024 23.418 68.486 23.8239 68.0897 24.1754C67.6934 24.5206 67.2172 24.7923 66.661 24.9904C66.1049 25.1822 65.4625 25.2781 64.7338 25.2781ZM65.9036 22.4592C66.5044 22.4592 67.035 22.3409 67.4952 22.1044C67.9554 21.8615 68.3166 21.5355 68.5787 21.1264C68.8407 20.7173 68.9718 20.2539 68.9718 19.7362V18.1733C68.8439 18.2564 68.6681 18.3331 68.4444 18.4034C68.2271 18.4673 67.981 18.5281 67.7061 18.5856C67.4313 18.6367 67.1564 18.6847 66.8816 18.7294C66.6067 18.7678 66.3574 18.8029 66.1337 18.8349C65.6543 18.9052 65.2356 19.017 64.8777 19.1705C64.5197 19.3239 64.2417 19.5316 64.0435 19.7937C63.8453 20.0494 63.7463 20.369 63.7463 20.7525C63.7463 21.3086 63.9476 21.7337 64.3503 22.0277C64.7594 22.3153 65.2772 22.4592 65.9036 22.4592ZM80.2809 16.4858V25H76.1964V10.2727H80.0891V12.8711H80.2617C80.5877 12.0146 81.1342 11.337 81.9013 10.8384C82.6683 10.3335 83.5984 10.081 84.6914 10.081C85.7141 10.081 86.6058 10.3047 87.3665 10.7521C88.1271 11.1996 88.7184 11.8388 89.1403 12.6697C89.5621 13.4943 89.7731 14.4787 89.7731 15.6229V25H85.6886V16.3516C85.695 15.4503 85.4648 14.7472 84.9982 14.2422C84.5316 13.7308 83.8892 13.4751 83.071 13.4751C82.5213 13.4751 82.0355 13.5934 81.6136 13.8299C81.1982 14.0664 80.8722 14.4116 80.6357 14.8654C80.4055 15.3129 80.2873 15.853 80.2809 16.4858ZM106.44 6.586H110.949C112.893 6.712 114.504 7.189 115.782 8.017C117.51 9.169 118.347 10.852 118.293 13.066C118.239 14.542 117.861 15.937 117.159 17.251C116.367 18.763 115.197 20.113 113.649 21.301C111.111 23.263 108.231 24.451 105.009 24.865C104.919 24.865 104.829 24.874 104.739 24.892C104.073 24.964 103.047 25 101.661 25H99.7713L99.6633 24.919C99.4473 24.775 99.4113 24.55 99.5553 24.244C99.6633 23.992 99.9153 23.722 100.311 23.434C100.707 23.182 101.049 23.029 101.337 22.975L101.58 22.894L101.634 22.705C103.398 18.277 104.487 13.84 104.901 9.394C104.973 8.926 104.991 8.692 104.955 8.692L103.875 8.827C102.867 8.989 102.138 9.268 101.688 9.664C101.4 9.952 101.184 10.321 101.04 10.771C100.95 11.005 100.815 11.239 100.635 11.473C99.9873 12.031 99.3033 12.346 98.5833 12.418C98.3493 12.418 98.1963 12.337 98.1243 12.175C98.0703 12.067 98.0883 11.86 98.1783 11.554C98.5383 10.51 99.2223 9.601 100.23 8.827C101.886 7.531 103.956 6.784 106.44 6.586ZM108.708 8.692C108.546 8.674 108.321 8.665 108.033 8.665H107.817V8.8L107.709 9.583C107.187 13.741 106.089 17.926 104.415 22.138C104.217 22.588 104.118 22.822 104.118 22.84C104.118 22.876 104.298 22.894 104.658 22.894C105.594 22.894 106.485 22.804 107.331 22.624C109.275 22.228 110.922 21.481 112.272 20.383C112.812 19.951 113.271 19.483 113.649 18.979C114.549 17.809 115.098 16.486 115.296 15.01C115.368 14.416 115.368 13.822 115.296 13.228C115.116 12.022 114.576 11.041 113.676 10.285C112.56 9.367 110.904 8.836 108.708 8.692ZM122.459 25.2493C121.826 25.2493 121.283 25.0256 120.829 24.5781C120.381 24.1243 120.158 23.581 120.158 22.9482C120.158 22.3217 120.381 21.7848 120.829 21.3374C121.283 20.8899 121.826 20.6662 122.459 20.6662C123.072 20.6662 123.609 20.8899 124.07 21.3374C124.53 21.7848 124.76 22.3217 124.76 22.9482C124.76 23.37 124.651 23.7567 124.434 24.1083C124.223 24.4535 123.945 24.7315 123.6 24.9425C123.255 25.147 122.874 25.2493 122.459 25.2493Z" fill="white"/>
</svg>
